<?xml version="1.0" standalone="no"?>
<!DOCTYPE svg PUBLIC "-//W3C//DTD SVG 20010904//EN"
 "http://www.w3.org/TR/2001/REC-SVG-20010904/DTD/svg10.dtd">
<svg version="1.0" xmlns="http://www.w3.org/2000/svg"
 width="488.000000pt" height="245.000000pt" viewBox="0 0 488.000000 245.000000"
 preserveAspectRatio="xMidYMid meet">

<g transform="translate(0.000000,245.000000) scale(0.100000,-0.100000)"
fill="#000000" stroke="none">
<path d="M1825 2261 c-87 -21 -159 -92 -221 -215 -45 -90 -52 -129 -24 -133
10 -2 30 28 61 94 47 99 96 160 154 191 24 13 65 18 198 20 92 2 167 1 167 -2
0 -2 -4 -16 -9 -29 -9 -24 -12 -24 -149 -29 -126 -4 -144 -7 -195 -31 -108
-53 -137 -120 -137 -317 l0 -137 -49 -23 c-49 -22 -67 -42 -55 -61 10 -16 33
-10 122 34 85 43 281 95 303 82 14 -9 11 -83 -5 -114 -15 -29 -86 -70 -189
-111 -50 -20 -70 -36 -148 -127 -57 -65 -89 -109 -85 -118 10 -27 30 -16 83
42 l52 58 43 -42 c24 -23 56 -47 72 -53 28 -10 28 -11 10 -31 -26 -29 -105
-68 -189 -94 -44 -14 -71 -28 -73 -37 -5 -28 32 -29 114 -2 86 28 153 66 199
114 l29 30 539 0 539 0 49 -44 c26 -24 73 -55 103 -69 74 -35 176 -61 189 -48
18 18 -1 38 -50 50 -63 16 -148 55 -191 88 l-35 26 35 18 c19 10 51 36 71 58
l36 40 52 -60 c51 -59 84 -73 84 -37 0 10 -39 62 -86 116 -84 95 -89 99 -180
137 -123 50 -169 93 -169 158 0 25 5 49 10 52 22 14 216 -37 309 -81 52 -25
101 -42 108 -40 28 11 11 37 -42 63 l-55 27 0 136 c0 196 -30 267 -135 319
-42 21 -66 25 -192 29 -142 5 -145 5 -154 29 -5 13 -9 26 -9 29 0 2 71 4 158
4 132 0 163 -3 197 -19 71 -33 137 -113 175 -212 26 -67 45 -88 62 -71 31 31
-83 243 -161 296 -70 49 -102 55 -291 55 -96 1 -181 -3 -189 -8 -11 -7 -11
-16 2 -55 l16 -46 -253 0 -254 0 17 45 c14 40 14 47 1 55 -17 11 -340 12 -385
1z"/>
<path d="M354 790 c-55 -8 -92 -34 -110 -75 -21 -52 -20 -444 2 -491 32 -66
145 -94 230 -55 59 27 74 71 74 211 l0 110 -95 0 -95 0 0 -35 0 -35 60 0 60 0
0 -74 c0 -99 -20 -126 -91 -126 -36 0 -54 5 -69 20 -19 19 -20 33 -20 230 0
211 0 211 25 235 30 31 92 34 126 6 19 -15 25 -32 29 -83 5 -63 5 -63 38 -66
l32 -3 0 61 c0 104 -35 155 -118 169 -20 4 -56 4 -78 1z"/>
<path d="M2278 790 c-48 -9 -84 -33 -105 -73 -16 -28 -18 -60 -18 -247 0 -206
1 -217 23 -251 55 -90 212 -93 276 -6 18 24 22 46 25 153 l3 124 -96 0 -96 0
0 -35 0 -35 60 0 60 0 0 -74 c0 -101 -19 -126 -95 -126 -87 0 -90 9 -90 258
l0 204 28 24 c28 24 76 31 112 18 25 -10 45 -59 45 -114 l0 -50 35 0 35 0 0
58 c-1 130 -76 195 -202 172z"/>
<path d="M4464 790 c-76 -11 -115 -52 -127 -135 -8 -53 6 -111 35 -142 12 -14
57 -42 99 -64 94 -47 119 -76 119 -136 0 -57 -33 -93 -85 -93 -20 0 -45 5 -55
10 -20 11 -40 66 -40 113 0 24 -3 27 -36 27 l-36 0 4 -64 c7 -110 70 -164 180
-154 88 9 138 69 138 166 0 90 -34 131 -161 198 -78 41 -92 59 -91 116 1 53
24 86 66 93 70 14 114 -35 115 -127 1 -37 2 -38 36 -38 35 0 35 0 35 46 0 135
-71 202 -196 184z"/>
<path d="M759 748 c-6 -24 -44 -164 -84 -313 l-72 -270 30 -3 c36 -4 37 -3 48
50 6 24 14 60 20 81 l10 37 84 0 84 0 10 -37 c6 -21 15 -59 22 -85 11 -46 13
-48 46 -48 32 0 35 2 30 23 -4 12 -41 154 -83 315 l-78 292 -27 0 c-25 0 -30
-5 -40 -42z m74 -219 c15 -64 27 -119 27 -123 0 -3 -29 -6 -65 -6 -36 0 -65 2
-65 5 0 25 64 254 70 248 3 -4 19 -60 33 -124z"/>
<path d="M1050 476 l0 -316 30 0 30 0 0 217 c0 119 3 213 7 209 4 -4 30 -64
58 -134 l51 -127 34 0 34 0 51 127 c28 70 54 130 58 134 4 4 7 -90 7 -209 l0
-217 35 0 35 0 0 315 0 315 -34 0 c-38 0 -31 12 -142 -263 -26 -65 -42 -94
-47 -85 -5 7 -39 87 -76 178 -66 162 -68 165 -99 168 l-32 3 0 -315z"/>
<path d="M1580 475 l0 -315 30 0 30 0 0 315 0 315 -30 0 -30 0 0 -315z"/>
<path d="M1730 475 l0 -315 35 0 35 0 2 222 3 222 95 -222 95 -222 38 0 37 0
0 315 0 315 -35 0 -35 0 0 -217 c0 -123 -4 -213 -9 -207 -4 5 -50 102 -101
217 l-93 207 -34 0 -33 0 0 -315z"/>
<path d="M2730 475 l0 -315 35 0 35 0 2 222 3 222 95 -222 94 -222 38 0 38 0
0 315 0 315 -35 0 -35 0 0 -217 c0 -129 -4 -213 -9 -207 -5 5 -51 102 -102
217 l-93 207 -33 0 -33 0 0 -315z"/>
<path d="M3160 475 l0 -315 155 0 155 0 0 35 0 35 -120 0 -120 0 0 110 0 110
115 0 115 0 0 30 0 30 -115 0 -115 0 0 100 0 100 120 0 120 0 0 40 0 40 -155
0 -155 0 0 -315z"/>
<path d="M3550 475 l0 -315 155 0 155 0 0 35 0 35 -120 0 -120 0 0 110 0 110
120 0 120 0 0 30 0 30 -120 0 -120 0 0 100 0 100 120 0 120 0 0 40 0 40 -155
0 -155 0 0 -315z"/>
<path d="M3940 474 l0 -316 109 4 c106 3 111 4 141 33 48 46 60 105 60 289 0
180 -8 221 -47 258 -40 36 -84 48 -179 48 l-84 0 0 -316z m184 235 c14 -7 31
-26 39 -43 19 -42 27 -171 18 -284 -7 -83 -11 -96 -36 -122 -25 -27 -36 -30
-87 -30 l-58 0 0 245 0 245 50 0 c27 0 60 -5 74 -11z"/>
</g>
</svg>
